#!OML:ASF F:\VICON\USERDATA\INSTALL\rory3\rory3.ASF
:FULLY-SPECIFIED
:DEGREES
1998
root 4.03006 17.5773 -10.3801 583.332 86.773 -854.536
lowerback 9.23924 2.50527 2.9234
upperback 0.239704 3.70552 0.749062
thorax -4.79308 1.78265 -1.34719
lowerneck -20.5461 -6.48261 -11.6919
upperneck 32.3246 -7.60617 8.66122
head 15.7289 -3.1894 4.29415
rclavicle -1.93442e-014 -6.26172e-015
rhumerus -29.4631 -6.82812 -84.9115
rradius 36.8673
rwrist 2.25966
rhand -18.3741 9.68402
rfingers 7.12502
rthumb 7.90924 -20.148
lclavicle -1.93442e-014 -6.26172e-015
lhumerus -33.6659 9.18568 83.1143
lradius 25.8012
lwrist -10.9422
lhand -17.6663 25.3991
lfingers 7.12502
lthumb 8.59236 55.2042
rfemur 12.5579 1.63392 31.8125
rtibia 15.7275
rfoot -16.3013 -2.86938
rtoes 7.76398
lfemur -22.9697 -4.27001 -14.9088
ltibia 17.2966
lfoot -6.18897 -2.59455
ltoes -16.8265
1999
root 4.13545 17.5638 -10.3866 575.098 86.717 -862.644
lowerback 9.66113 2.40285 2.45636
upperback 0.178749 3.53146 0.699554
thorax -5.12538 1.69992 -1.13928
lowerneck -20.5124 -6.52918 -11.6443
upperneck 32.3808 -7.68052 8.61155
head 15.7536 -3.22105 4.25178
rclavicle 2.95071e-016 3.18055e-015
rhumerus -29.7374 -7.07035 -84.7579
rradius 36.5654
rwrist 2.42159
rhand -18.316 9.53893
rfingers 7.12502
rthumb 7.96531 -20.291
lclavicle 2.95071e-016 3.18055e-015
lhumerus -33.5752 9.20986 83.0592
lradius 25.8889
lwrist -10.984
lhand -17.6482 25.2314
lfingers 7.12502
lthumb 8.60981 55.0359
rfemur 12.8628 2.19693 31.809
rtibia 16.0895
rfoot -16.0671 -3.69976
rtoes 7.35322
lfemur -22.7845 -4.03709 -15.5488
ltibia 17.6365
lfoot -5.44791 -4.34349
ltoes -14.5828
2000
root 4.28692 17.5671 -10.4296 582.25 87.0434 -855.734
lowerback 9.03568 2.46274 2.79705
upperback 0.174966 3.62191 0.643868
thorax -4.75071 1.74234 -1.36661
lowerneck -20.5595 -6.50125 -11.5532
upperneck 32.4812 -7.64108 8.52812
head 15.7973 -3.20318 4.21165
rclavicle 5.06404e-014 4.47266e-015
rhumerus -29.9523 -7.22798 -84.6847
rradius 36.2051
rwrist 2.64209
rhand -18.3253 9.38956
rfingers 7.12502
rthumb 7.95642 -20.4407
lclavicle 5.06404e-014 4.47266e-015
lhumerus -33.5183 9.1538 83.0164
lradius 26.0235
lwrist -10.8788
lhand -17.9653 25.4425
lfingers 7.12502
lthumb 8.30382 55.2593
rfemur 13.0365 2.5696 31.7333
rtibia 16.4532
rfoot -15.9297 -3.66923
rtoes 4.51694
lfemur -22.5944 -4.55859 -15.452
ltibia 18.0389
lfoot -4.75006 -4.723
ltoes -11.4807
2001
root 4.42346 17.5709 -10.4552 586.77 87.1525 -851.167
lowerback 8.99796 2.47979 2.93738
upperback 0.151369 3.65966 0.67046
thorax -4.74583 1.75797 -1.42064
lowerneck -20.5078 -6.51792 -11.6315
upperneck 32.559 -7.66124 8.58178
head 15.8338 -3.21372 4.24972
rclavicle 2.02326e-014 -7.25564e-015
rhumerus -30.2623 -7.39698 -84.5767
rradius 35.8798
rwrist 2.44471
rhand -18.6405 9.20487
rfingers 7.12502
rthumb 7.65214 -20.6367
lclavicle 2.02326e-014 -7.25564e-015
lhumerus -33.502 9.04356 83.0498
lradius 26.1099
lwrist -10.7573
lhand -17.7868 25.425
lfingers 7.12502
lthumb 8.47609 55.2349
rfemur 13.3044 2.89649 31.8727
rtibia 17.0538
rfoot -15.6429 -4.14859
rtoes 0.114101
lfemur -22.2409 -5.14297 -15.3104
ltibia 18.2929
lfoot -3.23642 -5.6756
ltoes -7.54004
2002
root 4.55109 17.578 -10.4665 585.331 87.3579 -852.402
lowerback 9.27335 2.53419 2.58132
upperback 0.145457 3.70713 0.714548
thorax -4.92979 1.78664 -1.19733
lowerneck -20.4044 -6.56881 -11.7778
upperneck 32.5764 -7.69615 8.59564
head 15.8332 -3.24627 4.2761
rclavicle -1.42597e-014 -1.31198e-014
rhumerus -30.5567 -8.14677 -84.205
rradius 35.3899
rwrist 2.73498
rhand -18.9468 8.99535
rfingers 7.12502
rthumb 7.35655 -20.8568
lclavicle -1.42597e-014 -1.31198e-014
lhumerus -33.4248 9.20427 83.0574
lradius 26.1067
lwrist -10.9657
lhand -17.4075 25.0928
lfingers 7.12502
lthumb 8.84215 54.8875
rfemur 13.5947 3.13028 31.7546
rtibia 17.7599
rfoot -15.2757 -4.41682
rtoes -1.74296
lfemur -21.8468 -5.43788 -15.5187
ltibia 18.465
lfoot -1.26628 -7.01835
ltoes -4.1918
